# xmcd CD database file
#
# Track frame offsets:
#	150
#	22985
#	49755
#	65132
#	82907
#	113017
#	130730
#	150945
#	192062
#	214585
#	241515
#	263917
#	284960
#	298390
#	317617
#
# Disc length: 4533 seconds
#
# Revision: 2
# Processed by: cddbd v1.5PL3 Copyright (c) Steve Scherf et al.
# Submitted via: CDex 1.51
#
DISCID=d111b30f
DTITLE=Sonny Rollins - The Freelance Years - The Complete Riverside and Contemporary Recordings - CD4
DYEAR=2000
DGENRE=Jazz
TTITLE0=Strong Man
TTITLE1=Happiness Is A Thing Called Joe
TTITLE2=That's Him
TTITLE3=My Man
TTITLE4=Don't Explain
TTITLE5=I Must Have That Man (take 3, alternate)
TTITLE6=Porgy (take 1, alternate)
TTITLE7=Sonnymoon For Two
TTITLE8=Like Someone In Love
TTITLE9=Theme From Symphony No. 6 Pathétique
TTITLE10=Till There Was You (take 4)
TTITLE11=Someday I'll Find You
TTITLE12=Will You Still Be Mine?
TTITLE13=Shadow Waltz
TTITLE14=Till There Was You (take 3, alternate)
EXTD=YEAR: 2000
EXTT0=
EXTT1=
EXTT2=
EXTT3=
EXTT4=
EXTT5=
EXTT6=
EXTT7=
EXTT8=
EXTT9=
EXTT10=
EXTT11=
EXTT12=
EXTT13=
EXTT14=
PLAYORDER=
